<?xml version="1.0" standalone="no"?>
<!DOCTYPE svg PUBLIC "-//W3C//DTD SVG 20010904//EN"
 "http://www.w3.org/TR/2001/REC-SVG-20010904/DTD/svg10.dtd">
<svg version="1.0" xmlns="http://www.w3.org/2000/svg"
 width="512.000000pt" height="512.000000pt" viewBox="0 0 512.000000 512.000000"
 preserveAspectRatio="xMidYMid meet">
<metadata>
Created by potrace 1.11, written by Peter Selinger 2001-2013
</metadata>
<g transform="translate(0.000000,512.000000) scale(0.100000,-0.100000)"
fill="#000000" stroke="none">
<path d="M2535 4300 c-10 -22 -22 -40 -27 -40 -4 0 -8 -4 -8 -9 0 -8 -107
-200 -139 -251 -6 -8 -29 -49 -53 -90 -23 -41 -49 -87 -58 -101 -23 -41 -223
-386 -243 -422 -99 -172 -322 -559 -457 -792 -236 -407 -310 -537 -310 -546 0
-5 -4 -9 -10 -9 -5 0 -10 -4 -10 -9 0 -5 -27 -55 -60 -111 -33 -56 -60 -103
-60 -106 0 -2 -16 -28 -35 -58 -19 -30 -35 -57 -35 -60 0 -4 -111 -197 -130
-226 -6 -8 -13 -22 -17 -30 -3 -8 -21 -39 -40 -68 -18 -29 -33 -54 -33 -56 0
-3 -19 -37 -43 -78 -24 -40 -55 -93 -69 -118 -14 -25 -57 -100 -97 -167 -39
-68 -71 -125 -71 -128 0 -3 913 -5 2030 -5 1117 0 2030 2 2030 5 0 2 -31 58
-69 123 -38 65 -130 224 -204 353 -111 193 -246 427 -337 584 -32 54 -92 159
-112 195 -11 19 -37 64 -58 100 -21 36 -47 81 -58 100 -24 43 -174 302 -295
510 -49 85 -101 175 -115 200 -13 25 -46 81 -72 125 -90 153 -227 390 -273
475 -16 30 -36 62 -43 71 -8 8 -14 18 -14 22 0 4 -21 41 -46 84 -26 43 -60
103 -77 133 -17 30 -41 72 -54 92 -13 21 -23 40 -23 42 0 3 -21 40 -47 83 -27
44 -66 111 -88 151 -22 39 -43 72 -46 72 -3 0 -14 -18 -24 -40z"/>
</g>
</svg>
