<?xml version="1.0" encoding="UTF-8"?>
<svg width="380px" height="34px" viewBox="0 0 380 34" version="1.1" xmlns="http://www.w3.org/2000/svg" xmlns:xlink="http://www.w3.org/1999/xlink">
    <!-- Generator: Sketch 62 (91390) - https://sketch.com -->
    <title>JulesChevalier</title>
    <desc>Created with Sketch.</desc>
    <g id="Page-1" stroke="none" stroke-width="1" fill="none" fill-rule="evenodd">
        <g id="Tablet" transform="translate(-147.000000, -600.000000)" fill="#9A9B94" fill-rule="nonzero">
            <path d="M157.504,634 C158.944,634 160.048,633.64 160.816,632.92 C161.584,632.2 161.968,631.12 161.968,629.68 L161.968,600.208 L155.824,600.208 L155.824,627.76 L147.808,627.76 L147.808,634 L157.504,634 Z M186.352,634 C187.792,634 188.896,633.64 189.664,632.92 C190.432,632.2 190.816,631.12 190.816,629.68 L190.816,629.68 L190.816,600.208 L184.672,600.208 L184.672,627.76 L179.728,627.76 L179.728,600.208 L173.584,600.208 L173.584,629.68 C173.584,631.12 173.968,632.2 174.736,632.92 C175.504,633.64 176.608,634 178.048,634 L178.048,634 L186.352,634 Z M216.592,634 L216.592,627.76 L208.576,627.76 L208.576,600.208 L202.432,600.208 L202.432,634 L216.592,634 Z M242.848,634 L242.848,627.76 L234.352,627.76 L234.352,619.984 L241.408,619.984 L241.408,613.744 L234.352,613.744 L234.352,606.448 L242.848,606.448 L242.848,600.208 L228.208,600.208 L228.208,634 L242.848,634 Z M264.736,634 C266.176,634 267.28,633.64 268.048,632.92 C268.816,632.2 269.2,631.12 269.2,629.68 L269.2,627.712 C269.2,627.328 269.152,626.952 269.056,626.584 C268.96,626.216 268.88,625.904 268.816,625.648 L260.896,606.448 L269.2,606.448 L269.2,600.208 L258.928,600.208 C257.552,600.208 256.464,600.52 255.664,601.144 C254.864,601.768 254.464,602.8 254.464,604.24 L254.464,606.496 C254.464,606.784 254.504,607.128 254.584,607.528 C254.664,607.928 254.752,608.256 254.848,608.512 L262.768,627.76 L254.464,627.76 L254.464,634 L264.736,634 Z M309.184,634 C310.624,634 311.728,633.64 312.496,632.92 C313.264,632.2 313.648,631.12 313.648,629.68 L313.648,621.76 L307.504,621.76 L307.504,627.76 L302.56,627.76 L302.56,606.448 L307.504,606.448 L307.504,612.448 L313.648,612.448 L313.648,604.528 C313.648,603.088 313.264,602.008 312.496,601.288 C311.728,600.568 310.624,600.208 309.184,600.208 L300.88,600.208 C299.44,600.208 298.336,600.568 297.568,601.288 C296.8,602.008 296.416,603.088 296.416,604.528 L296.416,629.68 C296.416,631.12 296.8,632.2 297.568,632.92 C298.336,633.64 299.44,634 300.88,634 L309.184,634 Z M331.408,634 L331.408,620.032 L336.256,620.032 L336.256,634 L342.4,634 L342.4,600.208 L336.256,600.208 L336.256,613.696 L331.408,613.696 L331.408,600.208 L325.264,600.208 L325.264,634 L331.408,634 Z M368.656,634 L368.656,627.76 L360.16,627.76 L360.16,619.984 L367.216,619.984 L367.216,613.744 L360.16,613.744 L360.16,606.448 L368.656,606.448 L368.656,600.208 L354.016,600.208 L354.016,634 L368.656,634 Z M393.28,634 L400.384,600.208 L393.856,600.208 L390.064,618.784 L386.32,600.208 L379.792,600.208 L386.896,634 L393.28,634 Z M413.776,634 L417.472,615.424 L421.264,634 L427.792,634 L420.688,600.208 L414.352,600.208 L407.2,634 L413.776,634 Z M453.088,634 L453.088,627.76 L445.072,627.76 L445.072,600.208 L438.928,600.208 L438.928,634 L453.088,634 Z M470.848,634 L470.848,600.208 L464.704,600.208 L464.704,634 L470.848,634 Z M497.104,634 L497.104,627.76 L488.608,627.76 L488.608,619.984 L495.664,619.984 L495.664,613.744 L488.608,613.744 L488.608,606.448 L497.104,606.448 L497.104,600.208 L482.464,600.208 L482.464,634 L497.104,634 Z M514.864,634 L514.864,606.448 L519.808,606.448 L519.808,613.744 L516.256,613.744 L516.256,620.704 L520.624,634 L526.96,634 L522.208,619.888 C523.264,619.824 524.152,619.544 524.872,619.048 C525.592,618.552 525.952,617.728 525.952,616.576 L525.952,616.576 L525.952,604.528 C525.952,603.088 525.568,602.008 524.8,601.288 C524.032,600.568 522.928,600.208 521.488,600.208 L521.488,600.208 L508.72,600.208 L508.72,634 L514.864,634 Z" id="JulesChevalier"></path>
        </g>
    </g>
</svg>